<?xml version="1.0" standalone="no"?>
<!DOCTYPE svg PUBLIC "-//W3C//DTD SVG 20010904//EN"
 "http://www.w3.org/TR/2001/REC-SVG-20010904/DTD/svg10.dtd">
<svg version="1.0" xmlns="http://www.w3.org/2000/svg"
 width="225.000000pt" height="224.000000pt" viewBox="0 0 225.000000 224.000000"
 preserveAspectRatio="xMidYMid meet">

<g transform="translate(0.000000,224.000000) scale(0.100000,-0.100000)"
fill="#000000" stroke="none">
<path d="M997 2229 c-371 -39 -718 -284 -882 -624 -76 -159 -107 -298 -107
-485 0 -305 102 -558 311 -773 286 -296 690 -409 1090 -307 299 76 564 287
707 563 89 173 124 317 124 517 0 200 -35 344 -124 517 -172 330 -503 554
-877 593 -112 11 -129 11 -242 -1z m-204 -237 c60 -94 137 -134 282 -147 171
-15 301 30 368 125 49 72 70 78 61 18 -13 -89 -70 -180 -126 -201 -9 -3 2 -20
33 -53 208 -217 118 -568 -168 -659 l-53 -17 0 -149 0 -148 143 -3 142 -3 0
-65 0 -65 -142 -3 -143 -3 0 -184 0 -185 -70 0 -70 0 0 185 0 185 -145 0 -145
0 0 70 0 70 145 0 146 0 -3 151 -3 150 -52 18 c-137 46 -237 165 -264 315 -23
121 18 249 108 340 44 45 46 49 27 59 -60 33 -114 129 -114 204 0 43 14 42 43
-5z m-213 -497 c-10 -12 -9 -15 6 -16 11 0 0 -7 -23 -16 -24 -8 -43 -21 -43
-28 0 -24 -75 -95 -100 -95 -51 0 -90 -71 -55 -100 16 -13 22 -115 7 -124 -13
-8 -83 36 -105 65 -10 15 -21 46 -24 70 -6 52 21 99 77 137 19 13 38 32 42 42
9 24 71 43 122 38 34 -4 48 0 72 18 33 27 42 30 24 9z m1380 -80 c44 -23 60
-53 60 -111 0 -80 -3 -84 -70 -84 l-58 0 19 37 c10 21 19 48 19 60 0 32 -28
41 -46 15 -19 -28 -78 -46 -129 -39 -34 5 -49 2 -68 -13 -14 -11 -29 -20 -34
-20 -4 0 1 8 12 16 20 16 19 16 -4 9 -14 -4 -21 -3 -17 3 3 5 19 12 35 15 21
4 38 19 55 45 31 50 66 72 110 70 20 -1 39 2 43 5 11 11 42 8 73 -8z m-1480
-219 c0 -72 -1 -74 -27 -84 -16 -5 -36 -13 -45 -17 -16 -6 -18 1 -18 84 l0 91
45 0 45 0 0 -74z m1564 -30 c13 -67 -39 -134 -141 -184 -20 -9 -33 -23 -33
-34 0 -15 -14 -11 -97 31 -139 69 -182 117 -168 188 l6 33 213 0 214 0 6 -34z
m-1493 -15 c21 -22 29 -39 29 -66 0 -51 -42 -88 -131 -117 l-69 -22 0 -63 c0
-56 -2 -63 -20 -63 -10 0 -35 14 -55 31 -30 27 -35 37 -35 76 0 68 21 98 92
131 35 17 80 36 101 43 33 11 37 17 37 46 0 41 13 42 51 4z m1265 -213 c144
-74 180 -140 113 -207 -37 -37 -49 -33 -49 17 0 36 -2 38 -60 61 -88 33 -120
64 -120 111 0 41 9 73 19 68 3 -2 47 -24 97 -50z m-1336 -41 l0 -64 -39 -11
c-21 -7 -41 -12 -45 -12 -4 0 -6 28 -4 62 3 60 4 62 38 74 19 7 38 13 43 13 4
1 7 -28 7 -62z m76 -58 c33 -65 -8 -121 -114 -153 -57 -18 -62 -21 -62 -48 0
-32 -9 -34 -49 -13 -32 16 -41 33 -41 74 0 39 33 65 125 99 75 27 80 30 83 60
3 28 6 31 23 22 10 -6 26 -24 35 -41z m1312 -162 c3 -95 3 -97 32 -114 61 -35
48 -43 -75 -43 -99 0 -114 2 -108 15 3 9 18 22 34 31 l29 15 0 114 0 114 43
-18 42 -18 3 -96z m-113 -66 c-4 -3 -15 5 -26 18 -26 32 -24 79 4 109 l22 24
3 -72 c2 -40 0 -75 -3 -79z m-1275 -11 l0 -80 -45 0 -46 0 3 67 c3 66 3 66 38
79 19 7 38 13 43 13 4 1 7 -35 7 -79z m1460 63 c0 -10 -42 -53 -52 -53 -18 0
-7 41 15 50 28 11 37 12 37 3z m-1392 -99 c-4 -3 -16 -3 -27 1 -14 4 -21 15
-21 33 l0 27 27 -27 c15 -15 24 -30 21 -34z"/>
<path d="M1012 1688 c-201 -97 -184 -401 27 -473 163 -55 325 50 339 220 9
113 -44 205 -143 251 -66 31 -162 32 -223 2z"/>
</g>
</svg>
